<?xml version="1.0" encoding="UTF-8"?>
<svg width="347px" height="49px" viewBox="0 0 347 49" version="1.1" xmlns="http://www.w3.org/2000/svg" xmlns:xlink="http://www.w3.org/1999/xlink">
    <title>logo_sec_full_dark</title>
    <g id="logo_sec_full_dark" stroke="none" stroke-width="1" fill="none" fill-rule="evenodd">
        <g id="Group-3" fill="#FFFFFF">
            <path d="M0,0 L49,0 L37.1621415,13.0216444 C33.9402644,16.5657091 29.3728248,18.5862069 24.5831602,18.5862069 L0,18.5862069 L0,18.5862069 L0,0 Z M24.4168398,30.4137931 L49,30.4137931 L49,30.4137931 L49,49 L0,49 L11.8378585,35.9783556 C15.0597356,32.4342909 19.6271752,30.4137931 24.4168398,30.4137931 Z" id="Combined-Shape-Copy-8"></path>
            <g id="zap.studio-copy-2" transform="translate(83, 0)" fill-rule="nonzero">
                <polygon id="Path" points="22.4323699 39.0373444 22.4323699 33.6493776 8.13872832 33.6493776 22.4323699 16.7738589 22.4323699 12.0975104 0.559537572 12.0975104 0.559537572 17.4854772 14.2427746 17.4854772 0 34.3609959 0 39.0373444"></polygon>
                <path d="M38.6080925,11.5892116 C30.5710983,11.5892116 26.6543353,18.6545643 26.6543353,25.5674274 C26.6543353,32.4802905 30.5710983,39.5456432 38.6080925,39.5456432 C43.7965318,39.5456432 46.1364162,36.4450207 46.8485549,35.2759336 L47.1537572,35.2759336 L47.1537572,39.0373444 L53.9190751,39.0373444 L53.9190751,12.0975104 L47.1537572,12.0975104 L47.1537572,15.8589212 L46.8485549,15.8589212 C46.1364162,14.689834 43.7965318,11.5892116 38.6080925,11.5892116 Z M40.3884393,17.129668 C44.966474,17.129668 47.2554913,21.3993776 47.2554913,25.5674274 C47.2554913,29.7354772 44.966474,34.0051867 40.3884393,34.0051867 C35.7595376,34.0051867 33.4705202,29.7354772 33.4705202,25.5674274 C33.4705202,21.3993776 35.7595376,17.129668 40.3884393,17.129668 Z" id="Shape"></path>
                <path d="M67.500578,49 L67.500578,35.2759336 L67.8566474,35.2759336 C68.5687861,36.4450207 70.9086705,39.5456432 76.0462428,39.5456432 C84.083237,39.5456432 88,32.4802905 88,25.5674274 C88,18.6545643 84.083237,11.5892116 76.0462428,11.5892116 C70.9086705,11.5892116 68.5687861,14.689834 67.8566474,15.8589212 L67.500578,15.8589212 L67.500578,12.0975104 L60.7352601,12.0975104 L60.7352601,49 L67.500578,49 Z M67.3988439,25.5674274 C67.3988439,21.3993776 69.6878613,17.129668 74.265896,17.129668 C78.8947977,17.129668 81.183815,21.3993776 81.183815,25.5674274 C81.183815,29.7354772 78.8947977,34.0051867 74.265896,34.0051867 C69.6878613,34.0051867 67.3988439,29.7354772 67.3988439,25.5674274 Z" id="Shape"></path>
                <path d="M98.8346821,39.5456432 C101.123699,39.5456432 102.853179,37.7665975 102.853179,35.530083 C102.853179,33.3443983 101.123699,31.5653527 98.8346821,31.5653527 C96.4947977,31.5653527 94.867052,33.3443983 94.867052,35.530083 C94.867052,37.7157676 96.4947977,39.5456432 98.8346821,39.5456432 Z" id="Path"></path>
                <path d="M121.012717,39.5456432 C127.778035,39.5456432 131.593064,35.7842324 131.593064,30.9553942 C131.593064,26.2282158 127.981503,23.9408714 122.996532,22.873444 L119.486705,22.1109959 C117.452023,21.7043568 116.027746,20.9419087 116.027746,19.4678423 C116.027746,18.0954357 117.146821,16.6213693 119.944509,16.6213693 C124.115607,16.6213693 124.675145,19.7728216 124.675145,19.7728216 L130.880925,19.7728216 C130.880925,19.7728216 130.016185,11.5892116 120.046243,11.5892116 C113.738728,11.5892116 109.821965,15.1473029 109.821965,19.9253112 C109.821965,24.8049793 113.891329,26.7873444 118.36763,27.7022822 L122.080925,28.4647303 C124.217341,28.9221992 125.387283,29.7863071 125.387283,31.3112033 C125.387283,32.8360996 124.217341,34.3609959 121.267052,34.3609959 C116.332948,34.3609959 115.77341,30.6504149 115.77341,30.6504149 L109.364162,30.6504149 C109.364162,30.6504149 110.127168,39.5456432 121.012717,39.5456432 Z" id="Path"></path>
                <path d="M149.091329,39.5456432 C151.431214,39.5456432 153.465896,39.0881743 153.465896,39.0881743 L153.465896,33.8018672 C153.465896,33.8018672 152.143353,34.0560166 150.820809,34.0560166 C148.023121,34.0560166 146.751445,32.8360996 146.751445,30.4470954 L146.751445,17.5363071 L152.804624,17.5363071 L152.804624,12.0975104 L146.751445,12.0975104 L146.751445,5.3879668 L139.986127,5.3879668 L139.986127,12.0975104 L135.357225,12.0975104 L135.357225,17.5363071 L139.986127,17.5363071 L139.986127,30.5995851 C139.986127,34.716805 141.715607,39.5456432 149.091329,39.5456432 Z" id="Path"></path>
                <path d="M167.556069,39.5456432 C171.981503,39.5456432 174.168786,37.0041494 175.186127,35.1742739 L175.491329,35.1742739 L175.491329,39.0373444 L182.256647,39.0373444 L182.256647,12.0975104 L175.491329,12.0975104 L175.491329,27.346473 C175.491329,30.5995851 174.016185,33.9543568 170.201156,33.9543568 C167.352601,33.9543568 165.724855,32.1244813 165.724855,29.1763485 L165.724855,12.0975104 L159.010405,12.0975104 L159.010405,30.2946058 C159.010405,35.7334025 161.960694,39.5456432 167.556069,39.5456432 Z" id="Path"></path>
                <path d="M200.110983,39.5456432 C205.299422,39.5456432 207.639306,36.4450207 208.351445,35.2759336 L208.656647,35.2759336 L208.656647,39.0373444 L215.421965,39.0373444 L215.421965,0.406639004 L208.656647,0.406639004 L208.656647,15.8589212 L208.351445,15.8589212 C207.639306,14.689834 205.299422,11.5892116 200.110983,11.5892116 C192.073988,11.5892116 188.157225,18.6545643 188.157225,25.5674274 C188.157225,32.4802905 192.073988,39.5456432 200.110983,39.5456432 Z M201.891329,34.0051867 C197.262428,34.0051867 194.97341,29.7354772 194.97341,25.5674274 C194.97341,21.3993776 197.262428,17.129668 201.891329,17.129668 C206.469364,17.129668 208.758382,21.3993776 208.758382,25.5674274 C208.758382,29.7354772 206.469364,34.0051867 201.891329,34.0051867 Z" id="Shape"></path>
                <path d="M226.307514,7.92946058 C228.698266,7.92946058 230.427746,6.15041494 230.427746,3.96473029 C230.427746,1.77904564 228.698266,0 226.307514,0 C223.96763,0 222.23815,1.77904564 222.23815,3.96473029 C222.23815,6.15041494 223.96763,7.92946058 226.307514,7.92946058 Z M229.715607,39.0373444 L229.715607,12.0975104 L222.950289,12.0975104 L222.950289,39.0373444 L229.715607,39.0373444 Z" id="Shape"></path>
                <path d="M250.164162,39.5456432 C259.065896,39.5456432 264,32.8869295 264,25.5674274 C264,18.2479253 259.065896,11.5892116 250.164162,11.5892116 C241.262428,11.5892116 236.328324,18.2479253 236.328324,25.5674274 C236.328324,32.8869295 241.262428,39.5456432 250.164162,39.5456432 Z M250.164162,33.903527 C245.687861,33.903527 243.144509,29.9896266 243.144509,25.5674274 C243.144509,21.1452282 245.687861,17.2313278 250.164162,17.2313278 C254.691329,17.2313278 257.183815,21.1452282 257.183815,25.5674274 C257.183815,29.9896266 254.691329,33.903527 250.164162,33.903527 Z" id="Shape"></path>
            </g>
        </g>
    </g>
</svg>